<?xml version="1.0" standalone="no"?>
<!DOCTYPE svg PUBLIC "-//W3C//DTD SVG 20010904//EN"
 "http://www.w3.org/TR/2001/REC-SVG-20010904/DTD/svg10.dtd">
<svg version="1.0" xmlns="http://www.w3.org/2000/svg"
 width="140.000000pt" height="140.000000pt" viewBox="0 0 140.000000 140.000000"
 preserveAspectRatio="xMidYMid meet">
<metadata>
Created by potrace 1.11, written by Peter Selinger 2001-2013
</metadata>
<g transform="translate(0.000000,140.000000) scale(0.100000,-0.100000)"
fill="#000000" stroke="none">
<path d="M498 1381 c-7 -10 -23 -21 -35 -25 -26 -8 -30 -38 -9 -58 11 -11 9
-19 -12 -50 -13 -21 -27 -58 -29 -82 -6 -47 11 -133 33 -178 20 -40 62 -201
70 -268 l6 -58 -45 5 c-44 5 -46 4 -72 -36 -15 -22 -34 -41 -41 -41 -18 0 -44
-40 -44 -67 0 -27 35 -53 72 -53 43 0 85 69 58 96 -17 17 14 36 44 28 24 -6
26 -11 26 -56 0 -27 -12 -84 -26 -126 -15 -42 -27 -100 -29 -128 -3 -58 -43
-147 -68 -152 -11 -2 -17 6 -19 29 -5 48 -31 59 -64 29 -45 -42 -84 -102 -84
-130 0 -56 50 -67 94 -21 25 26 31 28 52 19 29 -14 65 9 102 62 12 18 22 26
22 18 0 -8 13 -24 29 -36 37 -27 93 -25 121 6 11 12 26 22 33 22 7 0 21 3 32
6 25 6 115 -68 115 -95 0 -48 49 -53 113 -10 85 56 110 116 67 159 -31 31 -58
24 -108 -25 l-45 -46 -33 32 -33 32 35 49 c46 62 90 166 106 249 l12 65 43 -9
c37 -9 46 -8 64 9 12 10 27 31 35 46 8 16 21 28 29 28 16 0 55 51 55 74 0 18
-33 42 -70 51 -19 5 -33 0 -54 -20 -27 -25 -28 -34 -12 -75 3 -8 -1 -23 -9
-34 -11 -15 -19 -16 -42 -9 l-28 10 -7 144 c-5 114 -3 151 8 176 18 40 5 78
-36 101 -32 18 -40 42 -14 42 14 0 14 3 4 15 -7 9 -18 14 -25 12 -6 -3 -24 20
-39 49 -38 72 -124 151 -181 165 -36 9 -42 14 -37 31 6 24 -15 39 -44 32 -12
-3 -25 -1 -28 5 -11 17 -44 13 -58 -8z"/>
</g>
</svg>
